<?xml version="1.0" encoding="UTF-8"?>
<svg width="1440" height="1024" viewBox="0 0 1440 1024" fill="none" xmlns="http://www.w3.org/2000/svg">
  
  <defs>
    <!-- Ambient Glow Gradients -->
    <radialGradient id="purpleGlowTop" cx="60%" cy="0%" r="65%">
      <stop offset="0%" stop-color="#7C5CFF" stop-opacity="0.08" />
      <stop offset="100%" stop-color="#07080B" stop-opacity="0" />
    </radialGradient>
    <radialGradient id="sidebarGlow" cx="20%" cy="0%" r="65%">
      <stop offset="0%" stop-color="#7C5CFF" stop-opacity="0.1" />
      <stop offset="100%" stop-color="#090A0D" stop-opacity="0" />
    </radialGradient>
    <radialGradient id="cardHeroGlow" cx="90%" cy="10%" r="70%">
      <stop offset="0%" stop-color="#7C5CFF" stop-opacity="0.14" />
      <stop offset="100%" stop-color="#101217" stop-opacity="0" />
    </radialGradient>
    <radialGradient id="geminiAIGlow" cx="50%" cy="50%" r="50%">
      <stop offset="0%" stop-color="#8B6CFF" stop-opacity="0.25" />
      <stop offset="100%" stop-color="#7C5CFF" stop-opacity="0" />
    </radialGradient>

    <!-- Linear Accent Gradients -->
    <linearGradient id="primaryPurpleGrad" x1="0%" y1="0%" x2="100%" y2="100%">
      <stop offset="0%" stop-color="#8B6CFF" />
      <stop offset="100%" stop-color="#7C5CFF" />
    </linearGradient>
    <linearGradient id="readinessGrad" x1="0%" y1="0%" x2="100%" y2="0%">
      <stop offset="0%" stop-color="#7C5CFF" />
      <stop offset="100%" stop-color="#27D6A0" />
    </linearGradient>
    <linearGradient id="emeraldGrad" x1="0%" y1="0%" x2="100%" y2="0%">
      <stop offset="0%" stop-color="#27D6A0" />
      <stop offset="100%" stop-color="#35D39A" />
    </linearGradient>
    <linearGradient id="activeNavPill" x1="0%" y1="0%" x2="0%" y2="100%">
      <stop offset="0%" stop-color="#8B6CFF" />
      <stop offset="100%" stop-color="#7C5CFF" />
    </linearGradient>

    <!-- Filters / Shadows -->
    <filter id="dropShadowCard" x="-10%" y="-10%" width="120%" height="120%">
      <feDropShadow dx="0" dy="8" stdDeviation="15" flood-color="#000000" flood-opacity="0.35" />
    </filter>
    <filter id="purpleGlowFilter" x="-20%" y="-20%" width="140%" height="140%">
      <feGaussianBlur stdDeviation="6" result="blur" />
      <feComposite in="SourceGraphic" in2="blur" operator="over" />
    </filter>
  </defs>

  <!-- Canvas Base -->
  <rect width="1440" height="1024" fill="#07080B" />
  <rect width="1440" height="400" fill="url(#purpleGlowTop)" />

  
    <!-- Sidebar Frame (256px wide, 1024px high) -->
    <g id="Sidebar" transform="translate(0, 0)">
      <rect width="256" height="1024" fill="#090A0D" stroke="#1B1E25" stroke-width="1" />
      <rect width="256" height="320" fill="url(#sidebarGlow)" />

      <!-- Brand Logo Header -->
      <g id="Brand_Header" transform="translate(20, 24)">
        <rect width="38" height="38" rx="10" fill="url(#primaryPurpleGrad)" />
        <!-- Compass Icon -->
        <circle cx="19" cy="19" r="10" fill="none" stroke="#FFFFFF" stroke-width="1.5" />
        <polygon points="19,12 22,19 19,26 16,19" fill="#FFFFFF" />
        <text x="50" y="20" fill="#F2F3F5" font-family="Plus Jakarta Sans, Inter, sans-serif" font-size="16" font-weight="800">Skill<tspan fill="#8B6CFF">Bridge</tspan></text>
        <rect x="140" y="9" width="46" height="18" rx="4" fill="#7C5CFF" fill-opacity="0.15" stroke="#7C5CFF" stroke-opacity="0.3" stroke-width="1" />
        <text x="163" y="21" fill="#A38BFF" font-family="Plus Jakarta Sans, Inter, sans-serif" font-size="9" font-weight="700" text-anchor="middle">AI MVP</text>
        <text x="50" y="34" fill="#949BAD" font-family="Plus Jakarta Sans, Inter, sans-serif" font-size="11" font-weight="500">Data Analyst</text>
      </g>

      <line x1="0" y1="84" x2="256" y2="84" stroke="#1B1E25" stroke-width="1" />

      <!-- Section Label -->
      <text x="24" y="112" fill="#687083" font-family="Plus Jakarta Sans, Inter, sans-serif" font-size="10" font-weight="700" letter-spacing="0.08em">PLATFORM</text>

      <!-- Nav Items -->
      
      <g id="Nav_Dashboard" transform="translate(16, 130)">
        <rect width="224" height="42" rx="8" fill="transparent" stroke="transparent" stroke-width="1" />
        
        <path d="M3 3h7v7H3zm11 0h7v7h-7zm0 11h7v7h-7zM3 14h7v7H3z" fill="none" stroke="#687083" stroke-width="1.8" stroke-linecap="round" stroke-linejoin="round" transform="translate(14, 12) scale(0.75)" />
        <text x="42" y="25" fill="#949BAD" font-family="Plus Jakarta Sans, Inter, sans-serif" font-size="13" font-weight="500">Dashboard</text>
        
        
      </g>
    
      <g id="Nav_Roadmap" transform="translate(16, 178)">
        <rect width="224" height="42" rx="8" fill="transparent" stroke="transparent" stroke-width="1" />
        
        <path d="M9 20l-5.447-2.724A1 1 0 013 16.382V5.618a1 1 0 011.447-.894L9 7m0 13l6-3m-6 3V7m6 10l4.553 2.276A1 1 0 0021 18.382V7.618a1 1 0 00-.553-.894L15 4m0 13V4m0 0L9 7" fill="none" stroke="#687083" stroke-width="1.8" stroke-linecap="round" stroke-linejoin="round" transform="translate(14, 12) scale(0.75)" />
        <text x="42" y="25" fill="#949BAD" font-family="Plus Jakarta Sans, Inter, sans-serif" font-size="13" font-weight="500">Roadmap</text>
        
          <rect x="160" y="11" width="44" height="20" rx="10" fill="#7C5CFF" fill-opacity="0.15" stroke="#7C5CFF" stroke-opacity="0.3" stroke-width="1" />
          <text x="182" y="24" fill="#8B6CFF" font-family="Plus Jakarta Sans, Inter, sans-serif" font-size="10" font-weight="700" text-anchor="middle">Active</text>
        
        
      </g>
    
      <g id="Nav_Skill Gap" transform="translate(16, 226)">
        <rect width="224" height="42" rx="8" fill="#13151B" stroke="#242832" stroke-width="1" />
        <rect x="219" y="14" width="3" height="14" rx="1.5" fill="url(#activeNavPill)" />
        <path d="M4 6h16M4 12h16M4 18h16" fill="none" stroke="#F2F3F5" stroke-width="1.8" stroke-linecap="round" stroke-linejoin="round" transform="translate(14, 12) scale(0.75)" />
        <text x="42" y="25" fill="#F2F3F5" font-family="Plus Jakarta Sans, Inter, sans-serif" font-size="13" font-weight="600">Skill Gap</text>
        
        
      </g>
    
      <g id="Nav_Projects" transform="translate(16, 274)">
        <rect width="224" height="42" rx="8" fill="transparent" stroke="transparent" stroke-width="1" />
        
        <path d="M3 7v10a2 2 0 002 2h14a2 2 0 002-2V9a2 2 0 00-2-2h-6l-2-2H5a2 2 0 00-2 2z" fill="none" stroke="#687083" stroke-width="1.8" stroke-linecap="round" stroke-linejoin="round" transform="translate(14, 12) scale(0.75)" />
        <text x="42" y="25" fill="#949BAD" font-family="Plus Jakarta Sans, Inter, sans-serif" font-size="13" font-weight="500">Projects</text>
        
        
          <rect x="175" y="12" width="28" height="18" rx="4" fill="#0A0B0F" />
          <text x="189" y="24" fill="#687083" font-family="Plus Jakarta Sans, Inter, sans-serif" font-size="10" font-weight="600" text-anchor="middle">1/4</text>
        
      </g>
    
      <g id="Nav_AI Assistant" transform="translate(16, 322)">
        <rect width="224" height="42" rx="8" fill="transparent" stroke="transparent" stroke-width="1" />
        
        <path d="M12 2l2.4 7.2L22 12l-7.6 2.8L12 22l-2.4-7.2L2 12l7.6-2.8z" fill="none" stroke="#8B6CFF" stroke-width="1.8" stroke-linecap="round" stroke-linejoin="round" transform="translate(14, 12) scale(0.75)" />
        <text x="42" y="25" fill="#8B6CFF" font-family="Plus Jakarta Sans, Inter, sans-serif" font-size="13" font-weight="500">AI Assistant</text>
        
        
      </g>
    
      <g id="Nav_Profile & Progress" transform="translate(16, 370)">
        <rect width="224" height="42" rx="8" fill="transparent" stroke="transparent" stroke-width="1" />
        
        <path d="M16 7a4 4 0 11-8 0 4 4 0 018 0zM12 14a7 7 0 00-7 7h14a7 7 0 00-7-7z" fill="none" stroke="#687083" stroke-width="1.8" stroke-linecap="round" stroke-linejoin="round" transform="translate(14, 12) scale(0.75)" />
        <text x="42" y="25" fill="#949BAD" font-family="Plus Jakarta Sans, Inter, sans-serif" font-size="13" font-weight="500">Profile & Progress</text>
        
        
      </g>
    
      <g id="Nav_Settings" transform="translate(16, 418)">
        <rect width="224" height="42" rx="8" fill="transparent" stroke="transparent" stroke-width="1" />
        
        <path d="M10.325 4.317c.426-1.756 2.924-1.756 3.35 0a1.724 1.724 0 002.573 1.066c1.543-.94 3.31.826 2.37 2.37a1.724 1.724 0 001.065 2.572c1.756.426 1.756 2.924 0 3.35a1.724 1.724 0 00-1.066 2.573c.94 1.543-.826 3.31-2.37 2.37a1.724 1.724 0 00-2.572 1.065c-.426 1.756-2.924 1.756-3.35 0a1.724 1.724 0 00-2.573-1.066c-1.543.94-3.31-.826-2.37-2.37a1.724 1.724 0 00-1.065-2.572c-1.756-.426-1.756-2.924 0-3.35a1.724 1.724 0 001.066-2.573c-.94-1.543.826-3.31 2.37-2.37.996.608 2.296.07 2.572-1.065z" fill="none" stroke="#687083" stroke-width="1.8" stroke-linecap="round" stroke-linejoin="round" transform="translate(14, 12) scale(0.75)" />
        <text x="42" y="25" fill="#949BAD" font-family="Plus Jakarta Sans, Inter, sans-serif" font-size="13" font-weight="500">Settings</text>
        
        
      </g>
    

      <!-- Bottom Info & User Card -->
      <g id="Sidebar_Footer" transform="translate(16, 880)">
        <!-- Streak Card -->
        <rect width="224" height="48" rx="8" fill="#101217" stroke="#1B1E25" stroke-width="1" />
        <rect x="10" y="10" width="28" height="28" rx="6" fill="#EAB04B" fill-opacity="0.15" />
        <text x="24" y="28" fill="#EAB04B" font-size="14" text-anchor="middle">🔥</text>
        <text x="46" y="24" fill="#F2F3F5" font-family="Plus Jakarta Sans, Inter, sans-serif" font-size="12" font-weight="700">8-Day Streak</text>
        <text x="46" y="36" fill="#687083" font-family="Plus Jakarta Sans, Inter, sans-serif" font-size="10">Keep learning today</text>

        <!-- User Profile Card -->
        <g transform="translate(0, 56)">
          <rect width="224" height="48" rx="8" fill="#101217" stroke="#1B1E25" stroke-width="1" />
          <circle cx="24" cy="24" r="14" fill="#7C5CFF" fill-opacity="0.2" stroke="#7C5CFF" stroke-width="1" />
          <text x="24" y="28" fill="#A38BFF" font-family="Plus Jakarta Sans, Inter, sans-serif" font-size="11" font-weight="700" text-anchor="middle">A</text>
          <text x="46" y="22" fill="#F2F3F5" font-family="Plus Jakarta Sans, Inter, sans-serif" font-size="12" font-weight="700">Aarav</text>
          <text x="46" y="35" fill="#27D6A0" font-family="Plus Jakarta Sans, Inter, sans-serif" font-size="10" font-weight="600">● 48% Readiness</text>
        </g>
      </g>
    </g>
  
  
    <g id="TopHeader" transform="translate(256, 0)">
      <rect width="1184" height="64" fill="#07080B" fill-opacity="0.9" stroke="#1B1E25" stroke-width="1" />
      
      <!-- Breadcrumb -->
      <g transform="translate(32, 24)">
        <text fill="#687083" font-family="Plus Jakarta Sans, Inter, sans-serif" font-size="12" font-weight="500">SkillBridge / </text>
        <text x="75" fill="#F2F3F5" font-family="Plus Jakarta Sans, Inter, sans-serif" font-size="14" font-weight="700">Skill Gap Analysis</text>
      </g>

      <!-- Target Role Pill (Center) -->
      <g transform="translate(480, 16)">
        <rect width="340" height="32" rx="16" fill="#101217" stroke="#242832" stroke-width="1" />
        <!-- Target Icon -->
        <circle cx="20" cy="16" r="6" fill="none" stroke="#8B6CFF" stroke-width="1.5" />
        <circle cx="20" cy="16" r="2" fill="#8B6CFF" />
        <text x="32" y="20" fill="#949BAD" font-family="Plus Jakarta Sans, Inter, sans-serif" font-size="11">Target:</text>
        <text x="72" y="20" fill="#F2F3F5" font-family="Plus Jakarta Sans, Inter, sans-serif" font-size="11" font-weight="700">Data Analyst</text>
        <line x1="145" y1="10" x2="145" y2="22" stroke="#242832" stroke-width="1" />
        <text x="156" y="20" fill="#27D6A0" font-family="Plus Jakarta Sans, Inter, sans-serif" font-size="11">🕒 4-6 hrs/wk</text>
        <line x1="235" y1="10" x2="235" y2="22" stroke="#242832" stroke-width="1" />
        <text x="246" y="20" fill="#949BAD" font-family="Plus Jakarta Sans, Inter, sans-serif" font-size="11">Readiness:</text>
        <text x="306" y="20" fill="#27D6A0" font-family="Plus Jakarta Sans, Inter, sans-serif" font-size="11" font-weight="800">48%</text>
      </g>

      <!-- Right Actions -->
      <g transform="translate(1020, 16)">
        <!-- Ask AI Button -->
        <rect width="84" height="32" rx="8" fill="#13151B" stroke="#7C5CFF" stroke-opacity="0.3" stroke-width="1" />
        <text x="18" y="20" fill="#8B6CFF" font-size="12">✨</text>
        <text x="34" y="20" fill="#F2F3F5" font-family="Plus Jakarta Sans, Inter, sans-serif" font-size="12" font-weight="600">Ask AI</text>
        
        <!-- Bell Icon -->
        <g transform="translate(98, 0)">
          <rect width="32" height="32" rx="8" fill="#101217" stroke="#242832" stroke-width="1" />
          <path d="M16 6a4 4 0 00-4 4v2c0 .6-.4 1.4-.9 1.8L9.5 15h13l-1.6-1.2c-.5-.4-.9-1.2-.9-1.8v-2a4 4 0 00-4-4zM14 18a2 2 0 004 0" fill="none" stroke="#949BAD" stroke-width="1.5" />
          <circle cx="22" cy="8" r="3" fill="#8B6CFF" />
        </g>
      </g>
    </g>
  

  <g id="MainContent" transform="translate(288, 88)">
    <!-- Header -->
    <g id="Page_Header">
      <rect width="170" height="22" rx="11" fill="#7C5CFF" fill-opacity="0.15" stroke="#7C5CFF" stroke-opacity="0.3" stroke-width="1" />
      <text x="85" y="15" fill="#8B6CFF" font-family="Plus Jakarta Sans, Inter, sans-serif" font-size="10" font-weight="700" text-anchor="middle">DIAGNOSTICS &amp; GAP ANALYSIS</text>
      <text y="46" fill="#F2F3F5" font-family="Plus Jakarta Sans, Inter, sans-serif" font-size="28" font-weight="800">Your Skill Gap</text>
      <text y="68" fill="#949BAD" font-family="Plus Jakarta Sans, Inter, sans-serif" font-size="13">Here's what stands between you and your target role: <tspan fill="#F2F3F5" font-weight="600">Data Analyst</tspan>.</text>

      <g transform="translate(860, 20)">
        <rect width="120" height="34" rx="8" fill="#101217" stroke="#242832" stroke-width="1" />
        <text x="60" y="21" fill="#949BAD" font-family="Plus Jakarta Sans, Inter, sans-serif" font-size="12" font-weight="600" text-anchor="middle">Re-scan Market</text>
        <rect x="130" y="0" width="130" height="34" rx="8" fill="#7C5CFF" />
        <text x="195" y="21" fill="#FFFFFF" font-family="Plus Jakarta Sans, Inter, sans-serif" font-size="12" font-weight="700" text-anchor="middle">View My Roadmap →</text>
      </g>
    </g>

    <line x1="0" y1="84" x2="1120" y2="84" stroke="#1B1E25" stroke-width="1" />

    <!-- AI MARKET DIAGNOSTIC CALLOUT -->
    <g id="Diagnostic_Banner" transform="translate(0, 100)">
      <rect width="1120" height="110" rx="16" fill="#101217" stroke="#7C5CFF" stroke-opacity="0.3" stroke-width="1" />
      <circle cx="1060" cy="50" r="60" fill="url(#geminiAIGlow)" />
      
      <g transform="translate(28, 24)">
        <rect width="130" height="22" rx="4" fill="#E15C62" fill-opacity="0.12" stroke="#E15C62" stroke-opacity="0.3" stroke-width="1" />
        <text x="65" y="15" fill="#E15C62" font-family="Plus Jakarta Sans, Inter, sans-serif" font-size="10" font-weight="700" text-anchor="middle">PRIMARY BOTTLENECK</text>
        
        <text y="46" fill="#F2F3F5" font-family="Plus Jakarta Sans, Inter, sans-serif" font-size="18" font-weight="800">SQL Queries &amp; Multi-table JOINs (25% Proficiency)</text>
        <text y="68" fill="#949BAD" font-family="Plus Jakarta Sans, Inter, sans-serif" font-size="12">Present in <tspan fill="#27D6A0" font-weight="700">94% of Data Analyst job postings</tspan>. Resolving this in Stage 02 is projected to boost your candidate readiness score from 48% to 62%.</text>
      </g>
    </g>

    <!-- FILTER PILLS -->
    <g id="Filter_Pills" transform="translate(0, 230)">
      <!-- All -->
      <rect width="64" height="32" rx="16" fill="#7C5CFF" />
      <text x="32" y="20" fill="#FFFFFF" font-family="Plus Jakarta Sans, Inter, sans-serif" font-size="12" font-weight="600" text-anchor="middle">All (7)</text>

      <!-- Strong -->
      <rect x="76" width="90" height="32" rx="16" fill="#101217" stroke="#242832" stroke-width="1" />
      <text x="121" y="20" fill="#27D6A0" font-family="Plus Jakarta Sans, Inter, sans-serif" font-size="12" font-weight="600" text-anchor="middle">Strong (2)</text>

      <!-- Developing -->
      <rect x="178" width="115" height="32" rx="16" fill="#101217" stroke="#242832" stroke-width="1" />
      <text x="235" y="20" fill="#8B6CFF" font-family="Plus Jakarta Sans, Inter, sans-serif" font-size="12" font-weight="600" text-anchor="middle">Developing (2)</text>

      <!-- Gaps -->
      <rect x="305" width="115" height="32" rx="16" fill="#101217" stroke="#242832" stroke-width="1" />
      <text x="362" y="20" fill="#E15C62" font-family="Plus Jakarta Sans, Inter, sans-serif" font-size="12" font-weight="600" text-anchor="middle">Skill Gaps (3)</text>
    </g>

    <!-- SKILLS MATRIX (3x2 GRID) -->
    <g id="Skills_Grid" transform="translate(0, 280)">
      <!-- Skill 1: Excel -->
      <g transform="translate(0, 0)">
        <rect width="354" height="130" rx="14" fill="#101217" stroke="#242832" stroke-width="1" />
        <g transform="translate(20, 20)">
          <text fill="#F2F3F5" font-family="Plus Jakarta Sans, Inter, sans-serif" font-size="15" font-weight="700">Microsoft Excel</text>
          <rect x="230" y="-14" width="84" height="20" rx="10" fill="#27D6A0" fill-opacity="0.12" stroke="#27D6A0" stroke-opacity="0.25" stroke-width="1" />
          <text x="272" y="0" fill="#27D6A0" font-family="Plus Jakarta Sans, Inter, sans-serif" font-size="10" font-weight="700" text-anchor="middle">STRONG</text>

          <text y="24" fill="#949BAD" font-family="Plus Jakarta Sans, Inter, sans-serif" font-size="11">Formulas, XLOOKUP, Pivot Tables</text>
          <text y="54" fill="#687083" font-family="Plus Jakarta Sans, Inter, sans-serif" font-size="10">PROFICIENCY</text>
          <text x="314" y="54" fill="#27D6A0" font-family="Plus Jakarta Sans, Inter, sans-serif" font-size="11" font-weight="700" text-anchor="end">85%</text>
          <rect y="60" width="314" height="6" rx="3" fill="#0A0B0F" />
          <rect y="60" width="266" height="6" rx="3" fill="#27D6A0" />
        </g>
      </g>

      <!-- Skill 2: Python -->
      <g transform="translate(382, 0)">
        <rect width="354" height="130" rx="14" fill="#101217" stroke="#242832" stroke-width="1" />
        <g transform="translate(20, 20)">
          <text fill="#F2F3F5" font-family="Plus Jakarta Sans, Inter, sans-serif" font-size="15" font-weight="700">Python (Pandas)</text>
          <rect x="210" y="-14" width="104" height="20" rx="10" fill="#7C5CFF" fill-opacity="0.15" stroke="#7C5CFF" stroke-opacity="0.3" stroke-width="1" />
          <text x="262" y="0" fill="#8B6CFF" font-family="Plus Jakarta Sans, Inter, sans-serif" font-size="10" font-weight="700" text-anchor="middle">DEVELOPING</text>

          <text y="24" fill="#949BAD" font-family="Plus Jakarta Sans, Inter, sans-serif" font-size="11">Dataframes, Groupby, Cleaning</text>
          <text y="54" fill="#687083" font-family="Plus Jakarta Sans, Inter, sans-serif" font-size="10">PROFICIENCY</text>
          <text x="314" y="54" fill="#8B6CFF" font-family="Plus Jakarta Sans, Inter, sans-serif" font-size="11" font-weight="700" text-anchor="end">55%</text>
          <rect y="60" width="314" height="6" rx="3" fill="#0A0B0F" />
          <rect y="60" width="172" height="6" rx="3" fill="url(#primaryPurpleGrad)" />
        </g>
      </g>

      <!-- Skill 3: SQL -->
      <g transform="translate(766, 0)">
        <rect width="354" height="130" rx="14" fill="#101217" stroke="#E15C62" stroke-opacity="0.4" stroke-width="1" />
        <g transform="translate(20, 20)">
          <text fill="#F2F3F5" font-family="Plus Jakarta Sans, Inter, sans-serif" font-size="15" font-weight="700">SQL Queries &amp; JOINs</text>
          <rect x="220" y="-14" width="94" height="20" rx="10" fill="#E15C62" fill-opacity="0.12" stroke="#E15C62" stroke-opacity="0.3" stroke-width="1" />
          <text x="267" y="0" fill="#E15C62" font-family="Plus Jakarta Sans, Inter, sans-serif" font-size="10" font-weight="700" text-anchor="middle">SKILL GAP</text>

          <text y="24" fill="#E15C62" font-family="Plus Jakarta Sans, Inter, sans-serif" font-size="11">Multi-table queries, Aggregations</text>
          <text y="54" fill="#687083" font-family="Plus Jakarta Sans, Inter, sans-serif" font-size="10">PROFICIENCY</text>
          <text x="314" y="54" fill="#E15C62" font-family="Plus Jakarta Sans, Inter, sans-serif" font-size="11" font-weight="700" text-anchor="end">25%</text>
          <rect y="60" width="314" height="6" rx="3" fill="#0A0B0F" />
          <rect y="60" width="78" height="6" rx="3" fill="#E15C62" />
        </g>
      </g>

      <!-- Skill 4: Data Storytelling -->
      <g transform="translate(0, 150)">
        <rect width="354" height="130" rx="14" fill="#101217" stroke="#242832" stroke-width="1" />
        <g transform="translate(20, 20)">
          <text fill="#F2F3F5" font-family="Plus Jakarta Sans, Inter, sans-serif" font-size="15" font-weight="700">Data Storytelling</text>
          <rect x="210" y="-14" width="104" height="20" rx="10" fill="#7C5CFF" fill-opacity="0.15" stroke="#7C5CFF" stroke-opacity="0.3" stroke-width="1" />
          <text x="262" y="0" fill="#8B6CFF" font-family="Plus Jakarta Sans, Inter, sans-serif" font-size="10" font-weight="700" text-anchor="middle">DEVELOPING</text>

          <text y="24" fill="#949BAD" font-family="Plus Jakarta Sans, Inter, sans-serif" font-size="11">Executive slides, Business context</text>
          <text y="54" fill="#687083" font-family="Plus Jakarta Sans, Inter, sans-serif" font-size="10">PROFICIENCY</text>
          <text x="314" y="54" fill="#8B6CFF" font-family="Plus Jakarta Sans, Inter, sans-serif" font-size="11" font-weight="700" text-anchor="end">50%</text>
          <rect y="60" width="314" height="6" rx="3" fill="#0A0B0F" />
          <rect y="60" width="157" height="6" rx="3" fill="url(#primaryPurpleGrad)" />
        </g>
      </g>

      <!-- Skill 5: Tableau -->
      <g transform="translate(382, 150)">
        <rect width="354" height="130" rx="14" fill="#101217" stroke="#242832" stroke-width="1" />
        <g transform="translate(20, 20)">
          <text fill="#F2F3F5" font-family="Plus Jakarta Sans, Inter, sans-serif" font-size="15" font-weight="700">Tableau / Power BI</text>
          <rect x="220" y="-14" width="94" height="20" rx="10" fill="#E15C62" fill-opacity="0.12" stroke="#E15C62" stroke-opacity="0.3" stroke-width="1" />
          <text x="267" y="0" fill="#E15C62" font-family="Plus Jakarta Sans, Inter, sans-serif" font-size="10" font-weight="700" text-anchor="middle">SKILL GAP</text>

          <text y="24" fill="#949BAD" font-family="Plus Jakarta Sans, Inter, sans-serif" font-size="11">Dashboards, Parameters, Calculated fields</text>
          <text y="54" fill="#687083" font-family="Plus Jakarta Sans, Inter, sans-serif" font-size="10">PROFICIENCY</text>
          <text x="314" y="54" fill="#E15C62" font-family="Plus Jakarta Sans, Inter, sans-serif" font-size="11" font-weight="700" text-anchor="end">20%</text>
          <rect y="60" width="314" height="6" rx="3" fill="#0A0B0F" />
          <rect y="60" width="62" height="6" rx="3" fill="#E15C62" />
        </g>
      </g>

      <!-- Skill 6: Business Metrics -->
      <g transform="translate(766, 150)">
        <rect width="354" height="130" rx="14" fill="#101217" stroke="#242832" stroke-width="1" />
        <g transform="translate(20, 20)">
          <text fill="#F2F3F5" font-family="Plus Jakarta Sans, Inter, sans-serif" font-size="15" font-weight="700">Business Metrics (CAC, LTV)</text>
          <rect x="220" y="-14" width="94" height="20" rx="10" fill="#E15C62" fill-opacity="0.12" stroke="#E15C62" stroke-opacity="0.3" stroke-width="1" />
          <text x="267" y="0" fill="#E15C62" font-family="Plus Jakarta Sans, Inter, sans-serif" font-size="10" font-weight="700" text-anchor="middle">SKILL GAP</text>

          <text y="24" fill="#949BAD" font-family="Plus Jakarta Sans, Inter, sans-serif" font-size="11">Retention, Churn rate, Cohort analysis</text>
          <text y="54" fill="#687083" font-family="Plus Jakarta Sans, Inter, sans-serif" font-size="10">PROFICIENCY</text>
          <text x="314" y="54" fill="#E15C62" font-family="Plus Jakarta Sans, Inter, sans-serif" font-size="11" font-weight="700" text-anchor="end">30%</text>
          <rect y="60" width="314" height="6" rx="3" fill="#0A0B0F" />
          <rect y="60" width="94" height="6" rx="3" fill="#E15C62" />
        </g>
      </g>
    </g>
  </g>
</svg>